<svg width="80" height="53" viewBox="0 0 80 53" fill="none" xmlns="http://www.w3.org/2000/svg">
<path fill-rule="evenodd" clip-rule="evenodd" d="M60.8582 0H57.7812V52.0873H60.8582V0ZM64.6478 43.4495V36.0504H67.7247V43.4495C67.7247 47.6869 69.4089 50.0338 72.3239 50.0338C75.2389 50.0338 76.9231 47.6869 76.9231 43.4495V36.0504H80V43.4495C80 49.6752 77.0202 52.9673 72.3239 52.9673C67.6275 52.9347 64.6478 49.6752 64.6478 43.4495ZM3.04453 44.134C3.04453 47.6543 5.11741 50.1316 8.06477 50.1316C11.0769 50.1316 13.247 47.4914 13.2146 44.4274C13.2146 40.5486 10.915 38.2343 8.09716 38.2343C5.27935 38.2343 3.04453 40.4834 3.04453 44.134ZM3.07692 37.6476C4.43725 36.246 6.18623 35.3333 8.12955 35.3333C12.7935 35.3333 16.3239 38.5928 16.3563 44.3948C16.3563 49.0885 12.6964 52.9022 8.09716 52.9022C7.83246 52.9022 7.56776 52.8753 7.2788 52.8459L7.27866 52.8459L7.19029 52.837C5.4413 52.6088 4.04858 51.9243 3.01214 51.0768C2.85021 50.9791 2.72066 50.8487 2.59112 50.7183L2.59109 50.7183L2.2996 50.4249L2.23482 50.3597C0.421051 48.404 0.0647773 45.9268 0 44.6882V0.130379H3.07692V37.6476ZM46.3486 50.1316C43.4013 50.1316 41.3284 47.6543 41.3284 44.134C41.3284 40.4834 43.5632 38.2343 46.381 38.2343C49.1988 38.2343 51.4984 40.5486 51.4984 44.4274C51.5308 47.4914 49.3608 50.1316 46.3486 50.1316ZM46.4134 35.3333C44.4701 35.3333 42.7211 36.246 41.3608 37.6476V0.130379H38.2838V44.6882C38.3486 45.9268 38.7049 48.404 40.5187 50.3597L40.5834 50.4249L40.8749 50.7183L40.875 50.7183C41.0045 50.8487 41.1341 50.9791 41.296 51.0768C42.3324 51.9243 43.7251 52.6088 45.4741 52.837L45.5624 52.8459L45.5625 52.8459C45.8515 52.8753 46.1163 52.9022 46.381 52.9022C50.9802 52.9022 54.6401 49.0885 54.6401 44.3948C54.6077 38.5928 51.0774 35.3333 46.4134 35.3333ZM31.4813 45.5683H31.7728C32.5502 45.5683 34.0076 45.8942 33.7809 47.8173C32.5502 50.7835 29.7647 53 26.2668 53C21.5704 53 18.1048 48.9908 18.1048 44.1993C18.1048 39.4078 21.5704 35.3985 26.2668 35.3985C29.7 35.3985 32.5502 37.5498 33.7809 40.5812C34.0076 42.2761 32.8093 42.6999 31.9995 42.7651H31.287C30.8336 40.2226 28.8902 38.2669 26.2668 38.2669C23.7404 38.2669 21.8295 40.1249 21.3113 42.7651H31.2546V45.5683H21.3113C21.7971 48.1759 23.6433 50.0664 26.2668 50.0664C28.8902 50.0664 30.8336 48.1107 31.287 45.5683H31.4813Z" fill="#474747"/>
</svg>
