<svg width="32" height="30" viewBox="0 0 32 30" fill="none" xmlns="http://www.w3.org/2000/svg">
<path d="M4.14422 25.486L3.99714 26.2214H3.99714L4.14422 25.486ZM27.8559 25.486L28.003 26.2214H28.003L27.8559 25.486ZM28.0187 4.71827L28.1759 3.98491L28.0187 4.71827ZM3.98144 4.71827L4.13858 5.45162L3.98144 4.71827ZM13.1429 10.7143L13.5288 10.0712C13.2971 9.93214 13.0085 9.92849 12.7734 10.0616C12.5383 10.1948 12.3929 10.4441 12.3929 10.7143H13.1429ZM13.1429 19.2857H12.3929C12.3929 19.5559 12.5383 19.8052 12.7734 19.9384C13.0085 20.0715 13.2971 20.0678 13.5288 19.9288L13.1429 19.2857ZM20.2858 15L20.6717 15.6431C20.8976 15.5076 21.0358 15.2634 21.0358 15C21.0358 14.7365 20.8976 14.4924 20.6717 14.3569L20.2858 15ZM0.964355 7.52262V22.522H2.46436V7.52262H0.964355ZM31.0358 22.522V7.52261H29.5358V22.522H31.0358ZM3.99714 26.2214C11.9206 27.8061 20.0795 27.8061 28.003 26.2214L27.7088 24.7505C19.9795 26.2964 12.0206 26.2964 4.29131 24.7505L3.99714 26.2214ZM28.1759 3.98491C20.1498 2.26504 11.8504 2.26504 3.82429 3.98491L4.13858 5.45162C11.9575 3.77614 20.0426 3.77614 27.8616 5.45162L28.1759 3.98491ZM31.0358 7.52261C31.0358 5.81658 29.844 4.34238 28.1759 3.98491L27.8616 5.45162C28.8381 5.66088 29.5358 6.52389 29.5358 7.52261H31.0358ZM29.5358 22.522C29.5358 23.6053 28.7711 24.5381 27.7088 24.7505L28.003 26.2214C29.7664 25.8687 31.0358 24.3204 31.0358 22.522H29.5358ZM0.964355 22.522C0.964355 24.3204 2.2337 25.8687 3.99714 26.2214L4.29131 24.7505C3.22901 24.5381 2.46436 23.6053 2.46436 22.522H0.964355ZM2.46436 7.52262C2.46436 6.52389 3.16203 5.66088 4.13858 5.45162L3.82429 3.98491C2.15613 4.34238 0.964355 5.81659 0.964355 7.52262H2.46436ZM12.3929 10.7143V19.2857H13.8929V10.7143H12.3929ZM13.5288 19.9288L20.6717 15.6431L19.8999 14.3569L12.7571 18.6426L13.5288 19.9288ZM20.6717 14.3569L13.5288 10.0712L12.7571 11.3574L19.8999 15.6431L20.6717 14.3569Z" fill="#333333"/>
</svg>
