<svg width="12" height="12" viewBox="0 0 12 12" fill="none" xmlns="http://www.w3.org/2000/svg">
<path d="M11.3916 6.3H8.3976C8.3544 8.454 7.8576 10.3086 7.1418 11.2794C8.29747 11.0288 9.33902 10.4061 10.1067 9.50661C10.8744 8.60715 11.3257 7.48068 11.3916 6.3ZM11.3916 5.7C11.3257 4.51932 10.8744 3.39285 10.1067 2.49339C9.33902 1.59393 8.29747 0.971157 7.1418 0.7206C7.8582 1.6914 8.3544 3.5466 8.397 5.7H11.3916ZM0.6084 5.7H3.6024C3.6456 3.546 4.1424 1.6914 4.8582 0.7206C3.70253 0.971157 2.66098 1.59393 1.89331 2.49339C1.12565 3.39285 0.674261 4.51932 0.6084 5.7ZM0.6084 6.3C0.674261 7.48068 1.12565 8.60715 1.89331 9.50661C2.66098 10.4061 3.70253 11.0288 4.8582 11.2794C4.1418 10.3086 3.6456 8.4534 3.603 6.3H0.6084ZM7.7964 6.3H4.2036C4.2636 9.1668 5.1846 11.4 6 11.4C6.816 11.4 7.7364 9.1668 7.797 6.3H7.7964ZM7.7964 5.7C7.737 2.8332 6.816 0.6 6 0.6C5.184 0.6 4.2636 2.8332 4.203 5.7H7.797H7.7964ZM6 12C2.6862 12 0 9.3138 0 6C0 2.6862 2.6862 0 6 0C9.3138 0 12 2.6862 12 6C12 9.3138 9.3138 12 6 12Z" fill="#353535"/>
</svg>
