<svg width="32" height="32" viewBox="0 0 32 32" fill="none" xmlns="http://www.w3.org/2000/svg">
<path d="M23.8572 8.85715H25.2858M7.42864 1.71429H24.5715C27.7274 1.71429 30.2858 4.27267 30.2858 7.42858V24.5714C30.2858 27.7274 27.7274 30.2857 24.5715 30.2857H7.42864C4.27273 30.2857 1.71436 27.7274 1.71436 24.5714V7.42858C1.71436 4.27267 4.27273 1.71429 7.42864 1.71429ZM16.0001 21.7143C12.8442 21.7143 10.2858 19.1559 10.2858 16C10.2858 12.8441 12.8442 10.2857 16.0001 10.2857C19.156 10.2857 21.7144 12.8441 21.7144 16C21.7144 19.1559 19.156 21.7143 16.0001 21.7143Z" stroke="#333333" stroke-width="1.5"/>
</svg>
