<svg width="194" height="136" viewBox="0 0 194 136" fill="none" xmlns="http://www.w3.org/2000/svg">
<g filter="url(#filter0_d_22_244)">
<rect x="8" y="8" width="178" height="120" rx="16" fill="white"/>
<path d="M39.659 98.7578V102.893H38.5028V92.9497H41.2301C42.4497 92.9497 43.3497 93.1832 43.9301 93.6502C44.515 94.1172 44.8074 94.82 44.8074 95.7585C44.8074 97.0734 44.1409 97.9621 42.8079 98.4246L45.5079 102.893H44.1409L41.7333 98.7578H39.659ZM39.659 97.7649H41.2437C42.0598 97.7649 42.6583 97.6039 43.0391 97.282C43.42 96.9555 43.6104 96.4681 43.6104 95.8197C43.6104 95.1623 43.4155 94.6885 43.0255 94.3983C42.6401 94.1081 42.019 93.9631 41.162 93.9631H39.659V97.7649ZM50.0918 103.029C48.9901 103.029 48.1195 102.693 47.4802 102.022C46.8455 101.351 46.5281 100.42 46.5281 99.2271C46.5281 98.0256 46.8228 97.0711 47.4122 96.3638C48.0062 95.6565 48.8019 95.3029 49.7994 95.3029C50.7334 95.3029 51.4724 95.6112 52.0165 96.2278C52.5606 96.8399 52.8327 97.6492 52.8327 98.6558V99.3699H47.6979C47.7205 100.245 47.9404 100.909 48.3576 101.363C48.7792 101.816 49.3709 102.043 50.1326 102.043C50.9352 102.043 51.7286 101.875 52.513 101.539V102.546C52.114 102.718 51.7354 102.841 51.3772 102.913C51.0236 102.99 50.5951 103.029 50.0918 103.029ZM49.7858 96.2482C49.1873 96.2482 48.709 96.4432 48.3508 96.8331C47.9971 97.223 47.7885 97.7626 47.7251 98.4518H51.6221C51.6221 97.7399 51.4634 97.1958 51.146 96.8195C50.8286 96.4386 50.3752 96.2482 49.7858 96.2482ZM57.5798 102.084C58.3325 102.084 58.8811 101.882 59.2257 101.478C59.5702 101.075 59.7539 100.395 59.7765 99.4379V99.1863C59.7765 98.1434 59.5997 97.3931 59.2461 96.9351C58.8924 96.4772 58.3325 96.2482 57.5662 96.2482C56.9042 96.2482 56.3964 96.5067 56.0428 97.0235C55.6936 97.5359 55.5191 98.2613 55.5191 99.1999C55.5191 100.138 55.6914 100.855 56.036 101.349C56.3851 101.839 56.8997 102.084 57.5798 102.084ZM57.4098 103.029C56.4486 103.029 55.6982 102.691 55.1586 102.016C54.6191 101.34 54.3493 100.397 54.3493 99.1863C54.3493 97.9666 54.6213 97.0145 55.1654 96.3298C55.7095 95.6452 56.4667 95.3029 57.437 95.3029C58.4571 95.3029 59.2415 95.6883 59.7901 96.459H59.8514L60.0146 95.4389H60.9055V106.239H59.7765V103.049C59.7765 102.596 59.8015 102.21 59.8514 101.893H59.7629C59.2415 102.65 58.4571 103.029 57.4098 103.029ZM64.3673 95.4389V100.274C64.3673 100.882 64.5055 101.335 64.7821 101.635C65.0587 101.934 65.4917 102.084 66.0811 102.084C66.861 102.084 67.43 101.87 67.7882 101.444C68.1509 101.018 68.3323 100.322 68.3323 99.3563V95.4389H69.4613V102.893H68.5295L68.3663 101.893H68.3051C68.0738 102.26 67.7519 102.541 67.3393 102.736C66.9313 102.931 66.4643 103.029 65.9383 103.029C65.0315 103.029 64.3514 102.814 63.898 102.383C63.4491 101.952 63.2247 101.263 63.2247 100.315V95.4389H64.3673ZM75.0109 103.029C73.9091 103.029 73.0386 102.693 72.3993 102.022C71.7645 101.351 71.4472 100.42 71.4472 99.2271C71.4472 98.0256 71.7419 97.0711 72.3313 96.3638C72.9253 95.6565 73.721 95.3029 74.7185 95.3029C75.6525 95.3029 76.3915 95.6112 76.9356 96.2278C77.4797 96.8399 77.7517 97.6492 77.7517 98.6558V99.3699H72.6169C72.6396 100.245 72.8595 100.909 73.2767 101.363C73.6983 101.816 74.29 102.043 75.0517 102.043C75.8543 102.043 76.6477 101.875 77.4321 101.539V102.546C77.0331 102.718 76.6545 102.841 76.2963 102.913C75.9427 102.99 75.5142 103.029 75.0109 103.029ZM74.7049 96.2482C74.1064 96.2482 73.628 96.4432 73.2698 96.8331C72.9162 97.223 72.7076 97.7626 72.6442 98.4518H76.5412C76.5412 97.7399 76.3825 97.1958 76.0651 96.8195C75.7477 96.4386 75.2943 96.2482 74.7049 96.2482ZM84.4916 100.859C84.4916 101.553 84.2332 102.088 83.7163 102.464C83.1994 102.841 82.474 103.029 81.5399 103.029C80.5515 103.029 79.7807 102.872 79.2276 102.56V101.512C79.5858 101.694 79.9689 101.836 80.377 101.941C80.7896 102.045 81.1863 102.097 81.5671 102.097C82.1566 102.097 82.61 102.004 82.9274 101.818C83.2447 101.628 83.4034 101.34 83.4034 100.955C83.4034 100.664 83.2765 100.417 83.0226 100.213C82.7732 100.005 82.2835 99.7598 81.5535 99.4787C80.8598 99.2203 80.3656 98.9958 80.0709 98.8054C79.7807 98.6105 79.5631 98.3906 79.418 98.1457C79.2775 97.9009 79.2072 97.6084 79.2072 97.2684C79.2072 96.6608 79.4543 96.1825 79.9485 95.8334C80.4427 95.4797 81.1205 95.3029 81.982 95.3029C82.7845 95.3029 83.5689 95.4661 84.3352 95.7925L83.9339 96.7107C83.1858 96.4024 82.508 96.2482 81.9004 96.2482C81.3654 96.2482 80.9618 96.3321 80.6898 96.4999C80.4178 96.6676 80.2817 96.8989 80.2817 97.1936C80.2817 97.3931 80.3316 97.5631 80.4314 97.7036C80.5356 97.8442 80.7011 97.978 80.9278 98.1049C81.1545 98.2319 81.5898 98.4155 82.2336 98.6558C83.1178 98.9777 83.714 99.3019 84.0223 99.6283C84.3352 99.9548 84.4916 100.365 84.4916 100.859ZM88.7423 102.097C88.9418 102.097 89.1345 102.084 89.3204 102.056C89.5062 102.025 89.6536 101.993 89.7624 101.961V102.825C89.64 102.884 89.4586 102.931 89.2183 102.968C88.9826 103.008 88.7695 103.029 88.579 103.029C87.1372 103.029 86.4163 102.269 86.4163 100.751V96.3162H85.3485V95.7721L86.4163 95.3029L86.8924 93.7114H87.5453V95.4389H89.708V96.3162H87.5453V100.703C87.5453 101.152 87.6518 101.496 87.8649 101.737C88.078 101.977 88.3705 102.097 88.7423 102.097ZM101.297 102.893L100.059 99.7304H96.0738L94.8496 102.893H93.6798L97.6108 92.9089H98.5834L102.494 102.893H101.297ZM99.6988 98.6898L98.5426 95.6089C98.393 95.219 98.2388 94.7406 98.0801 94.1739C97.9804 94.6092 97.8375 95.0875 97.6516 95.6089L96.4819 98.6898H99.6988ZM107.16 103.029C106.674 103.029 106.23 102.94 105.827 102.764C105.428 102.582 105.092 102.306 104.82 101.934H104.738C104.793 102.369 104.82 102.782 104.82 103.172V106.239H103.691V95.4389H104.609L104.766 96.459H104.82C105.11 96.051 105.448 95.7563 105.833 95.5749C106.219 95.3936 106.661 95.3029 107.16 95.3029C108.148 95.3029 108.91 95.6407 109.445 96.3162C109.984 96.9918 110.254 97.9394 110.254 99.1591C110.254 100.383 109.98 101.335 109.431 102.016C108.887 102.691 108.13 103.029 107.16 103.029ZM106.996 96.2618C106.235 96.2618 105.684 96.4727 105.344 96.8943C105.004 97.316 104.829 97.987 104.82 98.9074V99.1591C104.82 100.206 104.995 100.957 105.344 101.41C105.693 101.859 106.253 102.084 107.024 102.084C107.667 102.084 108.171 101.823 108.533 101.301C108.901 100.78 109.084 100.061 109.084 99.1455C109.084 98.216 108.901 97.5041 108.533 97.0099C108.171 96.5112 107.658 96.2618 106.996 96.2618ZM115.702 103.029C115.217 103.029 114.772 102.94 114.369 102.764C113.97 102.582 113.634 102.306 113.362 101.934H113.28C113.335 102.369 113.362 102.782 113.362 103.172V106.239H112.233V95.4389H113.151L113.308 96.459H113.362C113.652 96.051 113.99 95.7563 114.375 95.5749C114.761 95.3936 115.203 95.3029 115.702 95.3029C116.69 95.3029 117.452 95.6407 117.987 96.3162C118.526 96.9918 118.796 97.9394 118.796 99.1591C118.796 100.383 118.522 101.335 117.973 102.016C117.429 102.691 116.672 103.029 115.702 103.029ZM115.538 96.2618C114.777 96.2618 114.226 96.4727 113.886 96.8943C113.546 97.316 113.371 97.987 113.362 98.9074V99.1591C113.362 100.206 113.537 100.957 113.886 101.41C114.235 101.859 114.795 102.084 115.566 102.084C116.209 102.084 116.713 101.823 117.075 101.301C117.443 100.78 117.626 100.061 117.626 99.1455C117.626 98.216 117.443 97.5041 117.075 97.0099C116.713 96.5112 116.2 96.2618 115.538 96.2618ZM124.176 95.3029C124.507 95.3029 124.804 95.3301 125.067 95.3845L124.91 96.4318C124.602 96.3638 124.33 96.3298 124.094 96.3298C123.491 96.3298 122.974 96.5747 122.544 97.0643C122.117 97.554 121.904 98.1638 121.904 98.8938V102.893H120.775V95.4389H121.707L121.836 96.8195H121.891C122.167 96.3344 122.5 95.9603 122.89 95.6973C123.28 95.4344 123.709 95.3029 124.176 95.3029ZM132.895 99.1591C132.895 100.374 132.589 101.324 131.977 102.009C131.365 102.689 130.519 103.029 129.44 103.029C128.773 103.029 128.182 102.872 127.665 102.56C127.148 102.247 126.749 101.798 126.468 101.213C126.187 100.628 126.046 99.9435 126.046 99.1591C126.046 97.9439 126.35 96.9986 126.957 96.323C127.565 95.6429 128.408 95.3029 129.487 95.3029C130.53 95.3029 131.358 95.6497 131.97 96.3434C132.586 97.0371 132.895 97.9757 132.895 99.1591ZM127.216 99.1591C127.216 100.111 127.406 100.837 127.787 101.335C128.168 101.834 128.728 102.084 129.467 102.084C130.206 102.084 130.766 101.836 131.147 101.342C131.532 100.843 131.725 100.116 131.725 99.1591C131.725 98.2115 131.532 97.4928 131.147 97.0031C130.766 96.5089 130.202 96.2618 129.453 96.2618C128.714 96.2618 128.157 96.5044 127.78 96.9895C127.404 97.4747 127.216 98.1979 127.216 99.1591ZM136.513 102.893L133.684 95.4389H134.894L136.499 99.8596C136.862 100.893 137.075 101.564 137.139 101.873H137.193C137.243 101.632 137.399 101.136 137.662 100.383C137.93 99.6261 138.526 97.978 139.451 95.4389H140.662L137.832 102.893H136.513ZM145.007 103.029C143.906 103.029 143.035 102.693 142.396 102.022C141.761 101.351 141.444 100.42 141.444 99.2271C141.444 98.0256 141.738 97.0711 142.328 96.3638C142.922 95.6565 143.718 95.3029 144.715 95.3029C145.649 95.3029 146.388 95.6112 146.932 96.2278C147.476 96.8399 147.748 97.6492 147.748 98.6558V99.3699H142.613C142.636 100.245 142.856 100.909 143.273 101.363C143.695 101.816 144.287 102.043 145.048 102.043C145.851 102.043 146.644 101.875 147.429 101.539V102.546C147.03 102.718 146.651 102.841 146.293 102.913C145.939 102.99 145.511 103.029 145.007 103.029ZM144.701 96.2482C144.103 96.2482 143.625 96.4432 143.266 96.8331C142.913 97.223 142.704 97.7626 142.641 98.4518H146.538C146.538 97.7399 146.379 97.1958 146.062 96.8195C145.744 96.4386 145.291 96.2482 144.701 96.2482ZM154.753 101.893H154.692C154.171 102.65 153.391 103.029 152.353 103.029C151.378 103.029 150.618 102.696 150.074 102.029C149.535 101.363 149.265 100.415 149.265 99.1863C149.265 97.9575 149.537 97.0031 150.081 96.323C150.625 95.6429 151.382 95.3029 152.353 95.3029C153.364 95.3029 154.139 95.6701 154.679 96.4046H154.767L154.719 95.8674L154.692 95.3437V92.3104H155.821V102.893H154.903L154.753 101.893ZM152.495 102.084C153.266 102.084 153.824 101.875 154.168 101.458C154.518 101.036 154.692 100.358 154.692 99.4243V99.1863C154.692 98.1298 154.515 97.3772 154.162 96.9283C153.813 96.4749 153.253 96.2482 152.482 96.2482C151.82 96.2482 151.312 96.5067 150.958 97.0235C150.609 97.5359 150.435 98.2613 150.435 99.1999C150.435 100.152 150.609 100.871 150.958 101.356C151.307 101.841 151.82 102.084 152.495 102.084Z" fill="#353535"/>
<g clip-path="url(#clip0_22_244)">
<g filter="url(#filter1_d_22_244)">
<circle cx="96.7322" cy="54.7679" r="20.8929" fill="url(#paint0_linear_22_244)"/>
</g>
<g filter="url(#filter2_d_22_244)">
<mask id="path-4-inside-1_22_244" fill="white">
<path fill-rule="evenodd" clip-rule="evenodd" d="M105.939 50.4015C106.797 49.364 106.651 47.8276 105.614 46.9698C104.576 46.1119 103.04 46.2576 102.182 47.2951L93.8618 57.3578L90.2318 54.498C89.1743 53.6649 87.6417 53.8468 86.8086 54.9043C85.9755 55.9617 86.1574 57.4943 87.2149 58.3274L92.7215 62.6656C93.7789 63.4986 95.3115 63.3167 96.1446 62.2593C96.1746 62.2212 96.2033 62.1825 96.2306 62.1432L105.939 50.4015Z"/>
</mask>
<path fill-rule="evenodd" clip-rule="evenodd" d="M105.939 50.4015C106.797 49.364 106.651 47.8276 105.614 46.9698C104.576 46.1119 103.04 46.2576 102.182 47.2951L93.8618 57.3578L90.2318 54.498C89.1743 53.6649 87.6417 53.8468 86.8086 54.9043C85.9755 55.9617 86.1574 57.4943 87.2149 58.3274L92.7215 62.6656C93.7789 63.4986 95.3115 63.3167 96.1446 62.2593C96.1746 62.2212 96.2033 62.1825 96.2306 62.1432L105.939 50.4015Z" fill="url(#paint1_linear_22_244)" shape-rendering="crispEdges"/>
<path d="M105.614 46.9698L105.392 47.2381V47.2381L105.614 46.9698ZM105.939 50.4015L106.207 50.6234V50.6234L105.939 50.4015ZM102.182 47.2951L101.914 47.0732V47.0732L102.182 47.2951ZM93.8618 57.3578L93.6463 57.6313L93.9134 57.8418L94.1302 57.5797L93.8618 57.3578ZM90.2318 54.498L90.4472 54.2245L90.2318 54.498ZM86.8086 54.9043L86.5351 54.6888H86.5351L86.8086 54.9043ZM87.2149 58.3274L86.9994 58.6009H86.9994L87.2149 58.3274ZM92.7215 62.6656L92.9369 62.392H92.9369L92.7215 62.6656ZM96.1446 62.2593L96.4181 62.4748V62.4748L96.1446 62.2593ZM96.2306 62.1432L95.9623 61.9213L95.9532 61.9323L95.945 61.9441L96.2306 62.1432ZM105.392 47.2381C106.281 47.9734 106.406 49.2904 105.671 50.1796L106.207 50.6234C107.188 49.4377 107.021 47.6818 105.836 46.7014L105.392 47.2381ZM102.45 47.5169C103.186 46.6277 104.503 46.5028 105.392 47.2381L105.836 46.7014C104.65 45.721 102.894 45.8875 101.914 47.0732L102.45 47.5169ZM94.1302 57.5797L102.45 47.5169L101.914 47.0732L93.5934 57.1359L94.1302 57.5797ZM90.0163 54.7715L93.6463 57.6313L94.0773 57.0843L90.4472 54.2245L90.0163 54.7715ZM87.0822 55.1198C87.7962 54.2134 89.1099 54.0575 90.0163 54.7715L90.4472 54.2245C89.2387 53.2724 87.4872 53.4803 86.5351 54.6888L87.0822 55.1198ZM87.4304 58.0539C86.524 57.3398 86.3681 56.0262 87.0822 55.1198L86.5351 54.6888C85.583 55.8973 85.7909 57.6488 86.9994 58.6009L87.4304 58.0539ZM92.9369 62.392L87.4304 58.0539L86.9994 58.6009L92.506 62.9391L92.9369 62.392ZM95.871 62.0438C95.157 62.9502 93.8433 63.1061 92.9369 62.392L92.506 62.9391C93.7145 63.8912 95.466 63.6833 96.4181 62.4748L95.871 62.0438ZM95.945 61.9441C95.9215 61.9778 95.8969 62.011 95.871 62.0438L96.4181 62.4748C96.4523 62.4314 96.485 62.3872 96.5163 62.3424L95.945 61.9441ZM105.671 50.1796L95.9623 61.9213L96.499 62.3651L106.207 50.6234L105.671 50.1796Z" fill="url(#paint2_linear_22_244)" mask="url(#path-4-inside-1_22_244)"/>
</g>
</g>
</g>
<defs>
<filter id="filter0_d_22_244" x="0" y="0" width="194" height="136" filterUnits="userSpaceOnUse" color-interpolation-filters="sRGB">
<feFlood flood-opacity="0" result="BackgroundImageFix"/>
<feColorMatrix in="SourceAlpha" type="matrix" values="0 0 0 0 0 0 0 0 0 0 0 0 0 0 0 0 0 0 127 0" result="hardAlpha"/>
<feOffset/>
<feGaussianBlur stdDeviation="4"/>
<feComposite in2="hardAlpha" operator="out"/>
<feColorMatrix type="matrix" values="0 0 0 0 0 0 0 0 0 0 0 0 0 0 0 0 0 0 0.15 0"/>
<feBlend mode="normal" in2="BackgroundImageFix" result="effect1_dropShadow_22_244"/>
<feBlend mode="normal" in="SourceGraphic" in2="effect1_dropShadow_22_244" result="shape"/>
</filter>
<filter id="filter1_d_22_244" x="71.6607" y="31.0893" width="50.1428" height="50.1428" filterUnits="userSpaceOnUse" color-interpolation-filters="sRGB">
<feFlood flood-opacity="0" result="BackgroundImageFix"/>
<feColorMatrix in="SourceAlpha" type="matrix" values="0 0 0 0 0 0 0 0 0 0 0 0 0 0 0 0 0 0 127 0" result="hardAlpha"/>
<feOffset dy="1.39286"/>
<feGaussianBlur stdDeviation="2.08929"/>
<feComposite in2="hardAlpha" operator="out"/>
<feColorMatrix type="matrix" values="0 0 0 0 0 0 0 0 0 0 0 0 0 0 0 0 0 0 0.2 0"/>
<feBlend mode="normal" in2="BackgroundImageFix" result="effect1_dropShadow_22_244"/>
<feBlend mode="normal" in="SourceGraphic" in2="effect1_dropShadow_22_244" result="shape"/>
</filter>
<filter id="filter2_d_22_244" x="84.8929" y="45.0179" width="22.9981" height="19.5635" filterUnits="userSpaceOnUse" color-interpolation-filters="sRGB">
<feFlood flood-opacity="0" result="BackgroundImageFix"/>
<feColorMatrix in="SourceAlpha" type="matrix" values="0 0 0 0 0 0 0 0 0 0 0 0 0 0 0 0 0 0 127 0" result="hardAlpha"/>
<feOffset/>
<feGaussianBlur stdDeviation="0.696429"/>
<feComposite in2="hardAlpha" operator="out"/>
<feColorMatrix type="matrix" values="0 0 0 0 0.572813 0 0 0 0 0.975 0 0 0 0 0.961594 0 0 0 1 0"/>
<feBlend mode="normal" in2="BackgroundImageFix" result="effect1_dropShadow_22_244"/>
<feBlend mode="normal" in="SourceGraphic" in2="effect1_dropShadow_22_244" result="shape"/>
</filter>
<linearGradient id="paint0_linear_22_244" x1="96.7322" y1="33.875" x2="96.7322" y2="75.6607" gradientUnits="userSpaceOnUse">
<stop stop-color="white"/>
<stop offset="1" stop-color="#F2F6FA"/>
</linearGradient>
<linearGradient id="paint1_linear_22_244" x1="94.9911" y1="51.9821" x2="94.2947" y2="62.7768" gradientUnits="userSpaceOnUse">
<stop stop-color="#37C0BA"/>
<stop offset="1" stop-color="#37C0BA" stop-opacity="0.6"/>
</linearGradient>
<linearGradient id="paint2_linear_22_244" x1="96.3919" y1="46.4107" x2="93.9464" y2="63.125" gradientUnits="userSpaceOnUse">
<stop stop-color="#8DE2DF"/>
<stop offset="1" stop-color="#8DE2DF" stop-opacity="0"/>
</linearGradient>
<clipPath id="clip0_22_244">
<rect width="51.5357" height="51.5357" fill="white" transform="translate(70.9643 29)"/>
</clipPath>
</defs>
</svg>
