<svg width="194" height="136" viewBox="0 0 194 136" fill="none" xmlns="http://www.w3.org/2000/svg">
<g filter="url(#filter0_d_64_218)">
<g clip-path="url(#clip0_64_218)">
<rect x="8" y="8" width="178" height="120" rx="16" fill="white"/>
<g clip-path="url(#clip1_64_218)">
<g clip-path="url(#clip2_64_218)">
<g opacity="0.2" filter="url(#filter1_i_64_218)">
<path fill-rule="evenodd" clip-rule="evenodd" d="M131.136 41.3967C130.35 42.755 128.623 43.2275 127.22 42.5257C119.573 38.7027 111.088 36.3004 102.114 35.6657C100.56 35.5558 99.3208 34.287 99.3208 32.7294V28.8914C99.3208 27.272 100.657 25.9654 102.273 26.0686C112.9 26.7466 122.936 29.5909 131.943 34.1634C133.378 34.8919 133.867 36.6802 133.06 38.073L131.136 41.3967ZM156.845 66.1064C155.492 66.8855 153.77 66.4404 152.9 65.1433C148.05 57.9066 141.816 51.6704 134.576 46.8105C133.278 45.9393 132.835 44.2139 133.618 42.861L135.544 39.5338C136.353 38.1367 138.156 37.6728 139.502 38.5634C148.103 44.2516 155.482 51.6295 161.163 60.2223C162.055 61.5709 161.587 63.3758 160.186 64.1824L156.845 66.1064ZM166.903 100.279C165.343 100.279 164.073 99.0358 163.965 97.4794C163.35 88.555 160.972 80.1139 157.176 72.4997C156.475 71.0936 156.951 69.3657 158.313 68.5818L161.654 66.6579C163.047 65.856 164.832 66.3468 165.559 67.7802C170.109 76.7562 172.931 86.752 173.589 97.3323C173.689 98.9465 172.383 100.279 170.766 100.279H166.903ZM158.621 135.03C157.27 134.251 156.789 132.542 157.471 131.139C161.202 123.462 163.498 114.964 164.014 105.989C164.104 104.419 165.38 103.155 166.953 103.155H170.811C172.417 103.155 173.718 104.469 173.636 106.072C173.091 116.707 170.358 126.765 165.881 135.809C165.163 137.259 163.367 137.762 161.965 136.955L158.621 135.03ZM27.6864 103.155C29.2598 103.155 30.5354 104.419 30.6256 105.989C31.1519 115.151 33.5338 123.817 37.4041 131.619C38.1012 133.024 37.6244 134.749 36.2648 135.531L32.9243 137.455C31.5297 138.258 29.7427 137.765 29.0178 136.328C24.3865 127.151 21.5595 116.911 21.0037 106.072C20.9214 104.469 22.2226 103.155 23.8282 103.155H27.6864ZM36.5781 68.0826C37.9479 68.8713 38.42 70.6138 37.7035 72.0226C33.7678 79.7607 31.3025 88.3682 30.6741 97.4793C30.5668 99.0358 29.297 100.279 27.7369 100.279H23.8735C22.2562 100.279 20.9504 98.9465 21.0507 97.3323C21.7207 86.5489 24.6395 76.3727 29.345 67.2644C30.0788 65.8439 31.8542 65.3628 33.2398 66.1606L36.5781 68.0826ZM64.3739 40.969C65.1522 42.3132 66.8534 42.792 68.2523 42.1168C75.9862 38.3838 84.5512 36.0942 93.5956 35.5986C95.1693 35.5123 96.4371 34.2355 96.4371 32.6594V28.8287C96.4371 27.2254 95.1268 25.9253 93.5254 26.0034C82.8227 26.5252 72.6985 29.2429 63.5962 33.7142C62.1389 34.4301 61.633 36.2346 62.4465 37.6397L64.3739 40.969ZM55.979 38.0146C57.3251 37.1495 59.1052 37.6198 59.9069 39.0045L61.83 42.3264C62.6214 43.6933 62.1603 45.4373 60.8368 46.2994C53.4166 51.1324 47.0192 57.3971 42.0389 64.7002C41.1645 65.9825 39.453 66.4173 38.108 65.6429L34.7633 63.7171C33.355 62.9063 32.8917 61.0884 33.7982 59.7398C39.6219 51.0756 47.1809 43.669 55.979 38.0146ZM33.399 143.894C32.511 142.545 32.9791 140.744 34.3784 139.938L37.7177 138.016C39.0728 137.235 40.7976 137.683 41.6657 138.984C46.0807 145.598 51.6511 151.382 58.0916 156.05C60.2389 157.606 60.7146 160.603 59.1542 162.744C57.5938 164.886 54.5881 165.36 52.4409 163.804C44.9536 158.378 38.4905 151.626 33.399 143.894ZM153.269 138.538C154.131 137.223 155.867 136.764 157.23 137.549L160.567 139.47C161.959 140.272 162.431 142.06 161.557 143.409C156.418 151.344 149.842 158.265 142.199 163.804C140.051 165.36 137.046 164.886 135.485 162.744C133.925 160.603 134.401 157.606 136.548 156.05C143.133 151.278 148.808 145.339 153.269 138.538Z" fill="#C4CFD0"/>
</g>
<mask id="mask0_64_218" style="mask-type:alpha" maskUnits="userSpaceOnUse" x="21" y="26" width="153" height="140">
<path fill-rule="evenodd" clip-rule="evenodd" d="M131.139 41.4463C130.351 42.8104 128.619 43.2849 127.212 42.5791C119.568 38.7456 111.088 36.3365 102.118 35.6995C100.562 35.589 99.3211 34.3178 99.3211 32.7571V28.8973C99.3211 27.2746 100.659 25.9654 102.277 26.0691C112.905 26.7501 122.941 29.6049 131.947 34.194C133.381 34.9245 133.87 36.7127 133.065 38.1068L131.139 41.4463ZM156.852 66.241C155.496 67.0246 153.768 66.5777 152.898 65.2748C148.047 58.0133 141.812 51.7557 134.572 46.8796C133.275 46.0066 132.833 44.2815 133.614 42.9273L135.542 39.5849C136.352 38.1817 138.16 37.716 139.51 38.6117C148.109 44.3206 155.488 51.7251 161.168 60.3485C162.058 61.6986 161.591 63.5034 160.191 64.3119L156.852 66.241ZM166.907 100.536C165.344 100.536 164.073 99.2903 163.966 97.7307C163.351 88.7708 160.971 80.2963 157.172 72.6525C156.473 71.2453 156.949 69.5175 158.309 68.7317L161.647 66.803C163.043 65.9965 164.834 66.4892 165.561 67.9287C170.111 76.9361 172.933 86.9667 173.589 97.5837C173.689 99.2011 172.382 100.536 170.763 100.536H166.907ZM158.617 135.404C157.267 134.625 156.787 132.915 157.467 131.511C161.202 123.804 163.499 115.272 164.014 106.262C164.104 104.688 165.382 103.422 166.957 103.422H170.808C172.416 103.422 173.718 104.738 173.636 106.345C173.092 117.017 170.36 127.11 165.883 136.186C165.165 137.641 163.363 138.146 161.958 137.335L158.617 135.404ZM27.6829 103.422C29.2583 103.422 30.5356 104.688 30.6256 106.262C31.1515 115.46 33.5351 124.16 37.4084 131.993C38.1039 133.399 37.6275 135.123 36.2693 135.908L32.932 137.836C31.5343 138.644 29.7414 138.149 29.016 136.706C24.3853 127.497 21.5588 117.221 21.0037 106.345C20.9217 104.738 22.2244 103.422 23.8321 103.422H27.6829ZM36.5828 68.2308C37.9511 69.0213 38.4229 70.7637 37.708 72.1736C33.7693 79.9417 31.3022 88.5832 30.6741 97.7306C30.567 99.2902 29.2955 100.536 27.7333 100.536H23.8773C22.258 100.536 20.9506 99.2011 21.0507 97.5837C21.7201 86.7628 24.6383 76.5512 29.3433 67.4111C30.0776 65.9845 31.8588 65.5015 33.2476 66.3038L36.5828 68.2308ZM64.3721 41.017C65.1511 42.3671 66.858 42.8479 68.2603 42.1689C75.9912 38.4257 84.5523 36.1296 93.5923 35.6321C95.168 35.5453 96.4374 34.266 96.4374 32.6869V28.8343C96.4374 27.2278 95.1253 25.9251 93.5219 26.0036C82.8189 26.5279 72.6945 29.2556 63.5922 33.7431C62.1362 34.4609 61.6307 36.2653 62.4422 37.6719L64.3721 41.017ZM55.9722 38.0608C57.3211 37.1906 59.1072 37.6628 59.9096 39.0536L61.835 42.3908C62.6244 43.759 62.1636 45.5028 60.8417 46.3666C53.4209 51.2159 47.0229 57.5019 42.042 64.83C41.1665 66.1182 39.4492 66.5547 38.101 65.7758L34.7589 63.8449C33.3522 63.0322 32.8892 61.2144 33.7934 59.8642C39.6163 51.1691 47.1746 43.7358 55.9722 38.0608ZM33.3941 144.294C32.5084 142.944 32.9762 141.143 34.3739 140.335L37.7105 138.408C39.0688 137.623 40.7995 138.072 41.6686 139.379C46.0832 146.015 51.6526 151.817 58.0919 156.5C60.2391 158.061 60.7148 161.069 59.1544 163.218C57.594 165.367 54.5884 165.843 52.4411 164.281C44.9513 158.834 38.4864 152.057 33.3941 144.294ZM153.266 138.931C154.13 137.61 155.872 137.15 157.238 137.94L160.572 139.866C161.962 140.669 162.434 142.458 161.563 143.807C156.423 151.773 149.845 158.721 142.199 164.281C140.052 165.843 137.046 165.367 135.486 163.218C133.925 161.069 134.401 158.061 136.548 156.5C143.132 151.712 148.806 145.754 153.266 138.931Z" fill="#C4CFD0"/>
</mask>
<g mask="url(#mask0_64_218)">
<circle cx="97.2225" cy="102.231" r="72.48" stroke="url(#paint0_angular_64_218)" stroke-width="13.44"/>
</g>
</g>
<g clip-path="url(#clip3_64_218)">
<g filter="url(#filter2_di_64_218)">
<circle cx="97.8005" cy="102.32" r="48.48" transform="rotate(120 97.8005 102.32)" fill="url(#paint1_linear_64_218)"/>
<circle cx="97.8005" cy="102.32" r="48.24" transform="rotate(120 97.8005 102.32)" stroke="url(#paint2_linear_64_218)" stroke-width="0.48"/>
</g>
<g filter="url(#filter3_f_64_218)">
<circle cx="97.8002" cy="102.32" r="46.56" fill="url(#paint3_linear_64_218)" fill-opacity="0.4"/>
</g>
<circle cx="87.4787" cy="66.0821" r="6.96" transform="rotate(105 87.4787 66.0821)" fill="url(#paint4_linear_64_218)" stroke="url(#paint5_linear_64_218)" stroke-width="0.48"/>
</g>
<path d="M84.8363 95.8037C86.1613 95.8037 87.2145 96.1756 87.9957 96.9194C88.7832 97.6631 89.177 98.6819 89.177 99.9756C89.177 101.507 88.7051 102.685 87.7613 103.51C86.8176 104.335 85.4676 104.747 83.7113 104.747C82.1863 104.747 80.9551 104.501 80.0176 104.007V101.504C80.5113 101.766 81.0863 101.982 81.7426 102.151C82.3988 102.313 83.0207 102.394 83.6082 102.394C85.377 102.394 86.2613 101.669 86.2613 100.219C86.2613 98.8381 85.3457 98.1475 83.5145 98.1475C83.1832 98.1475 82.8176 98.1819 82.4176 98.2506C82.0176 98.3131 81.6926 98.3819 81.4426 98.4569L80.2895 97.8381L80.8051 90.8537H88.2395V93.31H83.3457L83.0926 96.0006L83.4207 95.935C83.802 95.8475 84.2738 95.8037 84.8363 95.8037ZM100.324 97.7069C100.324 100.101 99.9301 101.872 99.1426 103.022C98.3613 104.172 97.1551 104.747 95.5238 104.747C93.9426 104.747 92.7488 104.154 91.9426 102.966C91.1426 101.779 90.7426 100.026 90.7426 97.7069C90.7426 95.2881 91.1332 93.5069 91.9145 92.3631C92.6957 91.2131 93.8988 90.6381 95.5238 90.6381C97.1051 90.6381 98.2988 91.2381 99.1051 92.4381C99.9176 93.6381 100.324 95.3944 100.324 97.7069ZM93.6207 97.7069C93.6207 99.3881 93.7645 100.594 94.052 101.326C94.3457 102.051 94.8363 102.413 95.5238 102.413C96.1988 102.413 96.6863 102.044 96.9863 101.307C97.2863 100.569 97.4363 99.3694 97.4363 97.7069C97.4363 96.0256 97.2832 94.8194 96.977 94.0881C96.677 93.3506 96.1926 92.9819 95.5238 92.9819C94.8426 92.9819 94.3551 93.3506 94.0613 94.0881C93.7676 94.8194 93.6207 96.0256 93.6207 97.7069Z" fill="#353535"/>
<path d="M104.895 95.265C104.895 96.115 104.988 96.7525 105.173 97.1775C105.358 97.6025 105.658 97.815 106.073 97.815C106.893 97.815 107.303 96.965 107.303 95.265C107.303 93.575 106.893 92.73 106.073 92.73C105.658 92.73 105.358 92.94 105.173 93.36C104.988 93.78 104.895 94.415 104.895 95.265ZM108.33 95.265C108.33 96.405 108.138 97.2675 107.753 97.8525C107.373 98.4325 106.813 98.7225 106.073 98.7225C105.373 98.7225 104.828 98.425 104.438 97.83C104.053 97.235 103.86 96.38 103.86 95.265C103.86 94.13 104.045 93.275 104.415 92.7C104.79 92.125 105.343 91.8375 106.073 91.8375C106.798 91.8375 107.355 92.135 107.745 92.73C108.135 93.325 108.33 94.17 108.33 95.265ZM111.495 99.66C111.495 100.515 111.588 101.155 111.773 101.58C111.958 102 112.26 102.21 112.68 102.21C113.1 102.21 113.41 102.002 113.61 101.587C113.81 101.167 113.91 100.525 113.91 99.66C113.91 98.805 113.81 98.1725 113.61 97.7625C113.41 97.3475 113.1 97.14 112.68 97.14C112.26 97.14 111.958 97.3475 111.773 97.7625C111.588 98.1725 111.495 98.805 111.495 99.66ZM114.938 99.66C114.938 100.795 114.745 101.655 114.36 102.24C113.98 102.82 113.42 103.11 112.68 103.11C111.97 103.11 111.423 102.812 111.038 102.217C110.658 101.622 110.468 100.77 110.468 99.66C110.468 98.525 110.653 97.67 111.023 97.095C111.398 96.52 111.95 96.2325 112.68 96.2325C113.39 96.2325 113.943 96.5275 114.338 97.1175C114.738 97.7025 114.938 98.55 114.938 99.66ZM113.003 91.995L106.92 102.96H105.818L111.9 91.995H113.003Z" fill="#353535"/>
<path d="M77.0557 117.48V112.683H77.3904V117.165H79.6774V117.48H77.0557ZM80.7504 117.48H80.4255V113.913H80.7504V117.48ZM80.3796 112.922C80.3796 112.712 80.4485 112.607 80.5863 112.607C80.6541 112.607 80.7066 112.635 80.7438 112.689C80.7832 112.744 80.8029 112.822 80.8029 112.922C80.8029 113.021 80.7832 113.098 80.7438 113.155C80.7066 113.212 80.6541 113.241 80.5863 113.241C80.4485 113.241 80.3796 113.135 80.3796 112.922ZM84.7305 113.913V114.14L83.9922 114.186C84.1891 114.431 84.2875 114.7 84.2875 114.993C84.2875 115.336 84.1727 115.615 83.943 115.83C83.7155 116.042 83.4093 116.148 83.0243 116.148C82.8624 116.148 82.7486 116.141 82.683 116.128C82.5539 116.196 82.4555 116.276 82.3877 116.368C82.3199 116.46 82.286 116.557 82.286 116.66C82.286 116.773 82.3286 116.857 82.4139 116.909C82.5014 116.962 82.6469 116.988 82.8504 116.988H83.4738C83.861 116.988 84.1574 117.067 84.363 117.224C84.5686 117.379 84.6714 117.61 84.6714 117.916C84.6714 118.293 84.5183 118.582 84.2121 118.786C83.908 118.992 83.4738 119.094 82.9094 119.094C82.461 119.094 82.1132 119.008 81.866 118.835C81.621 118.662 81.4985 118.422 81.4985 118.113C81.4985 117.868 81.5739 117.665 81.7249 117.503C81.878 117.341 82.0847 117.231 82.345 117.172C82.2379 117.126 82.1514 117.061 82.0858 116.978C82.0224 116.893 81.9907 116.795 81.9907 116.686C81.9907 116.447 82.1427 116.237 82.4468 116.056C82.2389 115.971 82.0771 115.837 81.9611 115.656C81.8452 115.472 81.7872 115.262 81.7872 115.026C81.7872 114.669 81.8999 114.384 82.1252 114.169C82.3527 113.953 82.6589 113.844 83.0439 113.844C83.278 113.844 83.4596 113.867 83.5886 113.913H84.7305ZM81.843 118.084C81.843 118.574 82.2072 118.819 82.9357 118.819C83.8719 118.819 84.34 118.52 84.34 117.923C84.34 117.709 84.2668 117.553 84.1202 117.457C83.9736 117.361 83.7363 117.313 83.4082 117.313H82.8241C82.17 117.313 81.843 117.57 81.843 118.084ZM82.1154 115.026C82.1154 115.301 82.1985 115.516 82.3647 115.669C82.5332 115.82 82.7574 115.895 83.0374 115.895C83.3349 115.895 83.5624 115.82 83.7199 115.669C83.8796 115.518 83.9594 115.299 83.9594 115.012C83.9594 114.708 83.8774 114.481 83.7133 114.33C83.5514 114.177 83.3239 114.1 83.0308 114.1C82.7464 114.1 82.5222 114.182 82.3582 114.346C82.1963 114.508 82.1154 114.735 82.1154 115.026ZM87.9527 117.48V115.167C87.9527 114.808 87.8772 114.548 87.7263 114.386C87.5754 114.222 87.3413 114.14 87.0241 114.14C86.5975 114.14 86.2847 114.248 86.0857 114.465C85.8888 114.679 85.7904 115.028 85.7904 115.511V117.48H85.4655V112.374H85.7904V113.999L85.7739 114.455H85.7969C85.9304 114.24 86.0988 114.085 86.3022 113.989C86.5057 113.892 86.7583 113.844 87.0602 113.844C87.8696 113.844 88.2743 114.279 88.2743 115.147V117.48H87.9527ZM90.371 117.257C90.5766 117.257 90.756 117.239 90.9091 117.204V117.467C90.7516 117.519 90.57 117.546 90.3644 117.546C90.0494 117.546 89.8164 117.461 89.6655 117.293C89.5168 117.125 89.4424 116.86 89.4424 116.499V114.195H88.9141V114.005L89.4424 113.857L89.6064 113.05H89.7738V113.913H90.8205V114.195H89.7738V116.453C89.7738 116.726 89.8219 116.929 89.9182 117.06C90.0144 117.191 90.1654 117.257 90.371 117.257ZM96.1558 116.243C96.1558 116.643 96.0082 116.96 95.7129 117.195C95.4197 117.429 95.0293 117.546 94.5414 117.546C93.9552 117.546 93.5057 117.481 93.1929 117.352V117.017C93.5385 117.164 93.9793 117.237 94.5152 117.237C94.9089 117.237 95.2207 117.147 95.4504 116.968C95.6822 116.787 95.7982 116.549 95.7982 116.256C95.7982 116.075 95.7599 115.925 95.6833 115.807C95.6068 115.686 95.4821 115.577 95.3093 115.478C95.1364 115.38 94.8827 115.274 94.548 115.16C94.058 114.992 93.7189 114.81 93.5308 114.615C93.3449 114.419 93.2519 114.157 93.2519 113.831C93.2519 113.472 93.3919 113.18 93.6719 112.955C93.9541 112.728 94.3161 112.614 94.758 112.614C95.2086 112.614 95.6319 112.699 96.0279 112.87L95.9064 113.159C95.5083 112.992 95.1277 112.909 94.7646 112.909C94.4102 112.909 94.128 112.991 93.918 113.155C93.708 113.319 93.603 113.542 93.603 113.825C93.603 114.002 93.6347 114.147 93.6982 114.261C93.7638 114.375 93.8699 114.478 94.0164 114.57C94.163 114.659 94.4146 114.767 94.7711 114.894C95.1452 115.023 95.4263 115.149 95.6144 115.272C95.8025 115.392 95.9393 115.53 96.0246 115.685C96.1121 115.838 96.1558 116.024 96.1558 116.243ZM98.0294 117.257C98.235 117.257 98.4144 117.239 98.5675 117.204V117.467C98.41 117.519 98.2285 117.546 98.0229 117.546C97.7079 117.546 97.4749 117.461 97.3239 117.293C97.1752 117.125 97.1008 116.86 97.1008 116.499V114.195H96.5725V114.005L97.1008 113.857L97.2649 113.05H97.4322V113.913H98.4789V114.195H97.4322V116.453C97.4322 116.726 97.4804 116.929 97.5766 117.06C97.6729 117.191 97.8238 117.257 98.0294 117.257ZM100.743 113.844C100.894 113.844 101.056 113.86 101.229 113.89L101.166 114.202C101.018 114.165 100.863 114.146 100.704 114.146C100.4 114.146 100.15 114.275 99.9555 114.533C99.7608 114.792 99.6635 115.117 99.6635 115.511V117.48H99.3386V113.913H99.6143L99.6471 114.556H99.67C99.8166 114.294 99.973 114.11 100.139 114.005C100.306 113.898 100.507 113.844 100.743 113.844ZM103.398 117.546C102.879 117.546 102.474 117.386 102.183 117.067C101.895 116.747 101.75 116.3 101.75 115.725C101.75 115.156 101.89 114.701 102.17 114.36C102.45 114.016 102.828 113.844 103.302 113.844C103.722 113.844 104.054 113.991 104.297 114.284C104.539 114.577 104.661 114.975 104.661 115.478V115.741H102.092C102.096 116.231 102.21 116.605 102.433 116.863C102.658 117.121 102.98 117.25 103.398 117.25C103.601 117.25 103.779 117.236 103.932 117.208C104.088 117.179 104.283 117.118 104.52 117.024V117.319C104.318 117.407 104.133 117.466 103.962 117.496C103.791 117.529 103.603 117.546 103.398 117.546ZM103.302 114.133C102.959 114.133 102.683 114.247 102.476 114.474C102.268 114.7 102.146 115.026 102.111 115.452H104.316C104.316 115.039 104.227 114.716 104.047 114.484C103.868 114.25 103.62 114.133 103.302 114.133ZM108.132 117.48V115.167C108.132 114.808 108.057 114.548 107.906 114.386C107.755 114.222 107.521 114.14 107.204 114.14C106.777 114.14 106.464 114.248 106.265 114.465C106.068 114.679 105.97 115.028 105.97 115.511V117.48H105.645V113.913H105.921L105.983 114.402H106.003C106.235 114.03 106.647 113.844 107.24 113.844C108.049 113.844 108.454 114.279 108.454 115.147V117.48H108.132ZM112.391 113.913V114.14L111.653 114.186C111.85 114.431 111.948 114.7 111.948 114.993C111.948 115.336 111.834 115.615 111.604 115.83C111.376 116.042 111.07 116.148 110.685 116.148C110.523 116.148 110.41 116.141 110.344 116.128C110.215 116.196 110.116 116.276 110.049 116.368C109.981 116.46 109.947 116.557 109.947 116.66C109.947 116.773 109.99 116.857 110.075 116.909C110.162 116.962 110.308 116.988 110.511 116.988H111.135C111.522 116.988 111.818 117.067 112.024 117.224C112.23 117.379 112.332 117.61 112.332 117.916C112.332 118.293 112.179 118.582 111.873 118.786C111.569 118.992 111.135 119.094 110.57 119.094C110.122 119.094 109.774 119.008 109.527 118.835C109.282 118.662 109.159 118.422 109.159 118.113C109.159 117.868 109.235 117.665 109.386 117.503C109.539 117.341 109.746 117.231 110.006 117.172C109.899 117.126 109.812 117.061 109.747 116.978C109.683 116.893 109.652 116.795 109.652 116.686C109.652 116.447 109.804 116.237 110.108 116.056C109.9 115.971 109.738 115.837 109.622 115.656C109.506 115.472 109.448 115.262 109.448 115.026C109.448 114.669 109.561 114.384 109.786 114.169C110.014 113.953 110.32 113.844 110.705 113.844C110.939 113.844 111.121 113.867 111.25 113.913H112.391ZM109.504 118.084C109.504 118.574 109.868 118.819 110.597 118.819C111.533 118.819 112.001 118.52 112.001 117.923C112.001 117.709 111.928 117.553 111.781 117.457C111.635 117.361 111.397 117.313 111.069 117.313H110.485C109.831 117.313 109.504 117.57 109.504 118.084ZM109.776 115.026C109.776 115.301 109.859 115.516 110.026 115.669C110.194 115.82 110.418 115.895 110.698 115.895C110.996 115.895 111.223 115.82 111.381 115.669C111.541 115.518 111.62 115.299 111.62 115.012C111.62 114.708 111.538 114.481 111.374 114.33C111.212 114.177 110.985 114.1 110.692 114.1C110.407 114.1 110.183 114.182 110.019 114.346C109.857 114.508 109.776 114.735 109.776 115.026ZM114.068 117.257C114.274 117.257 114.453 117.239 114.606 117.204V117.467C114.449 117.519 114.267 117.546 114.062 117.546C113.747 117.546 113.514 117.461 113.363 117.293C113.214 117.125 113.14 116.86 113.14 116.499V114.195H112.611V114.005L113.14 113.857L113.304 113.05H113.471V113.913H114.518V114.195H113.471V116.453C113.471 116.726 113.519 116.929 113.615 117.06C113.712 117.191 113.863 117.257 114.068 117.257ZM117.865 117.48V115.167C117.865 114.808 117.789 114.548 117.638 114.386C117.487 114.222 117.253 114.14 116.936 114.14C116.509 114.14 116.197 114.248 115.998 114.465C115.801 114.679 115.702 115.028 115.702 115.511V117.48H115.377V112.374H115.702V113.999L115.686 114.455H115.709C115.842 114.24 116.011 114.085 116.214 113.989C116.418 113.892 116.67 113.844 116.972 113.844C117.781 113.844 118.186 114.279 118.186 115.147V117.48H117.865Z" fill="#9C9C9C"/>
</g>
</g>
</g>
<defs>
<filter id="filter0_d_64_218" x="0" y="0" width="194" height="136" filterUnits="userSpaceOnUse" color-interpolation-filters="sRGB">
<feFlood flood-opacity="0" result="BackgroundImageFix"/>
<feColorMatrix in="SourceAlpha" type="matrix" values="0 0 0 0 0 0 0 0 0 0 0 0 0 0 0 0 0 0 127 0" result="hardAlpha"/>
<feOffset/>
<feGaussianBlur stdDeviation="4"/>
<feComposite in2="hardAlpha" operator="out"/>
<feColorMatrix type="matrix" values="0 0 0 0 0 0 0 0 0 0 0 0 0 0 0 0 0 0 0.15 0"/>
<feBlend mode="normal" in2="BackgroundImageFix" result="effect1_dropShadow_64_218"/>
<feBlend mode="normal" in="SourceGraphic" in2="effect1_dropShadow_64_218" result="shape"/>
</filter>
<filter id="filter1_i_64_218" x="21" y="26" width="152.64" height="139.68" filterUnits="userSpaceOnUse" color-interpolation-filters="sRGB">
<feFlood flood-opacity="0" result="BackgroundImageFix"/>
<feBlend mode="normal" in="SourceGraphic" in2="BackgroundImageFix" result="shape"/>
<feColorMatrix in="SourceAlpha" type="matrix" values="0 0 0 0 0 0 0 0 0 0 0 0 0 0 0 0 0 0 127 0" result="hardAlpha"/>
<feOffset dy="0.96"/>
<feGaussianBlur stdDeviation="0.96"/>
<feComposite in2="hardAlpha" operator="arithmetic" k2="-1" k3="1"/>
<feColorMatrix type="matrix" values="0 0 0 0 0 0 0 0 0 0 0 0 0 0 0 0 0 0 0.25 0"/>
<feBlend mode="normal" in2="shape" result="effect1_innerShadow_64_218"/>
</filter>
<filter id="filter2_di_64_218" x="26.2725" y="25.0319" width="158.416" height="158.416" filterUnits="userSpaceOnUse" color-interpolation-filters="sRGB">
<feFlood flood-opacity="0" result="BackgroundImageFix"/>
<feColorMatrix in="SourceAlpha" type="matrix" values="0 0 0 0 0 0 0 0 0 0 0 0 0 0 0 0 0 0 127 0" result="hardAlpha"/>
<feOffset dx="7.68" dy="1.92"/>
<feGaussianBlur stdDeviation="15.36"/>
<feColorMatrix type="matrix" values="0 0 0 0 0.0705882 0 0 0 0 0.239843 0 0 0 0 0.396078 0 0 0 0.2 0"/>
<feBlend mode="normal" in2="BackgroundImageFix" result="effect1_dropShadow_64_218"/>
<feBlend mode="normal" in="SourceGraphic" in2="effect1_dropShadow_64_218" result="shape"/>
<feColorMatrix in="SourceAlpha" type="matrix" values="0 0 0 0 0 0 0 0 0 0 0 0 0 0 0 0 0 0 127 0" result="hardAlpha"/>
<feOffset dx="-3.84" dy="-2.88"/>
<feGaussianBlur stdDeviation="19.2"/>
<feComposite in2="hardAlpha" operator="arithmetic" k2="-1" k3="1"/>
<feColorMatrix type="matrix" values="0 0 0 0 1 0 0 0 0 1 0 0 0 0 1 0 0 0 0.18 0"/>
<feBlend mode="normal" in2="shape" result="effect2_innerShadow_64_218"/>
</filter>
<filter id="filter3_f_64_218" x="50.7602" y="55.28" width="94.0801" height="94.08" filterUnits="userSpaceOnUse" color-interpolation-filters="sRGB">
<feFlood flood-opacity="0" result="BackgroundImageFix"/>
<feBlend mode="normal" in="SourceGraphic" in2="BackgroundImageFix" result="shape"/>
<feGaussianBlur stdDeviation="0.24" result="effect1_foregroundBlur_64_218"/>
</filter>
<radialGradient id="paint0_angular_64_218" cx="0" cy="0" r="1" gradientUnits="userSpaceOnUse" gradientTransform="translate(97.2225 102.231) rotate(90) scale(79.2)">
<stop offset="0.463116" stop-color="#4DF7DD"/>
<stop offset="0.496251" stop-color="#8CFCCA"/>
<stop offset="0.501376" stop-color="#8BFCCC" stop-opacity="0"/>
<stop offset="1" stop-color="#73F7E2" stop-opacity="0"/>
</radialGradient>
<linearGradient id="paint1_linear_64_218" x1="157.535" y1="-15.4172" x2="19.9118" y2="217.751" gradientUnits="userSpaceOnUse">
<stop offset="0.335303" stop-color="white"/>
<stop offset="1" stop-color="#F0F6FC"/>
</linearGradient>
<linearGradient id="paint2_linear_64_218" x1="137.478" y1="49.3747" x2="26.2185" y2="101.294" gradientUnits="userSpaceOnUse">
<stop offset="0.263331" stop-color="white"/>
<stop offset="0.507086" stop-color="#DBE6F2" stop-opacity="0"/>
<stop offset="1" stop-color="#EFF3F8"/>
</linearGradient>
<linearGradient id="paint3_linear_64_218" x1="62.9594" y1="72.5469" x2="97.8002" y2="124.971" gradientUnits="userSpaceOnUse">
<stop stop-color="#EBEFF5"/>
<stop offset="1" stop-color="#C4C4C4" stop-opacity="0"/>
</linearGradient>
<linearGradient id="paint4_linear_64_218" x1="91.2114" y1="70.5332" x2="85.3061" y2="61.5997" gradientUnits="userSpaceOnUse">
<stop offset="0.0494522" stop-color="white"/>
<stop offset="0.853822" stop-color="#D7E0E9" stop-opacity="0.45"/>
</linearGradient>
<linearGradient id="paint5_linear_64_218" x1="94.6787" y1="73.2821" x2="77.3987" y2="58.8821" gradientUnits="userSpaceOnUse">
<stop offset="0.164188" stop-color="white"/>
<stop offset="0.764691" stop-color="white" stop-opacity="0"/>
</linearGradient>
<clipPath id="clip0_64_218">
<rect x="8" y="8" width="178" height="120" rx="16" fill="white"/>
</clipPath>
<clipPath id="clip1_64_218">
<rect width="152" height="180.48" fill="white" transform="translate(21 26)"/>
</clipPath>
<clipPath id="clip2_64_218">
<rect width="152.64" height="152.64" fill="white" transform="translate(21 26)"/>
</clipPath>
<clipPath id="clip3_64_218">
<rect width="152.64" height="152.64" fill="white" transform="translate(21 21.2)"/>
</clipPath>
</defs>
</svg>
