<svg width="194" height="136" viewBox="0 0 194 136" fill="none" xmlns="http://www.w3.org/2000/svg">
<g filter="url(#filter0_d_22_413)">
<g clip-path="url(#clip0_22_413)">
<rect x="8" y="8" width="178" height="120" rx="16" fill="white"/>
<g filter="url(#filter1_d_22_413)">
<rect x="8" y="8" width="260" height="124.037" rx="15.9021" fill="white"/>
<path opacity="0.7" d="M27.6991 29.1286C27.0593 29.1286 26.5561 29.3553 26.1896 29.8088C25.8232 30.2622 25.6399 30.8881 25.6399 31.6863C25.6399 32.5218 25.8154 33.1538 26.1664 33.5824C26.5204 34.011 27.0313 34.2253 27.6991 34.2253C27.988 34.2253 28.2675 34.1974 28.5377 34.1415C28.8079 34.0825 29.089 34.0079 29.3809 33.9179V34.8729C28.8467 35.0748 28.2411 35.1757 27.564 35.1757C26.567 35.1757 25.8014 34.8745 25.2672 34.2719C24.733 33.6663 24.4659 32.8013 24.4659 31.677C24.4659 30.9688 24.5948 30.3492 24.8526 29.8181C25.1135 29.287 25.4893 28.8801 25.98 28.5975C26.4707 28.3148 27.0469 28.1735 27.7084 28.1735C28.4041 28.1735 29.0471 28.3195 29.6372 28.6114L29.2365 29.5386C29.0067 29.4299 28.7629 29.3351 28.5051 29.2544C28.2504 29.1705 27.9817 29.1286 27.6991 29.1286ZM36.2201 35.0826H35.102V32.0124H31.9619V35.0826H30.8485V28.2714H31.9619V31.0573H35.102V28.2714H36.2201V35.0826ZM41.8666 35.0826H38.0138V28.2714H41.8666V29.2124H39.1272V31.0667H41.6942V31.9984H39.1272V34.1368H41.8666V35.0826ZM46.2413 29.1286C45.6014 29.1286 45.0983 29.3553 44.7318 29.8088C44.3653 30.2622 44.182 30.8881 44.182 31.6863C44.182 32.5218 44.3575 33.1538 44.7085 33.5824C45.0626 34.011 45.5735 34.2253 46.2413 34.2253C46.5301 34.2253 46.8096 34.1974 47.0798 34.1415C47.3501 34.0825 47.6311 34.0079 47.9231 33.9179V34.8729C47.3889 35.0748 46.7832 35.1757 46.1061 35.1757C45.1092 35.1757 44.3436 34.8745 43.8093 34.2719C43.2751 33.6663 43.008 32.8013 43.008 31.677C43.008 30.9688 43.1369 30.3492 43.3947 29.8181C43.6556 29.287 44.0314 28.8801 44.5221 28.5975C45.0129 28.3148 45.589 28.1735 46.2506 28.1735C46.9463 28.1735 47.5892 28.3195 48.1793 28.6114L47.7787 29.5386C47.5488 29.4299 47.305 29.3351 47.0472 29.2544C46.7925 29.1705 46.5239 29.1286 46.2413 29.1286ZM54.5899 35.0826H53.2994L51.161 31.9984L50.5041 32.5342V35.0826H49.3906V28.2714H50.5041V31.5232C50.8085 31.1505 51.1113 30.7918 51.4126 30.447L53.2528 28.2714H54.52C53.3304 29.669 52.4779 30.6644 51.9623 31.2577L54.5899 35.0826ZM61.5409 31.6676C61.5409 32.7764 61.2629 33.6383 60.7069 34.2533C60.1541 34.8683 59.3698 35.1757 58.3542 35.1757C57.3262 35.1757 56.5357 34.8714 55.9829 34.2626C55.4331 33.6508 55.1583 32.7827 55.1583 31.6583C55.1583 30.534 55.4347 29.6706 55.9875 29.068C56.5435 28.4655 57.3355 28.1642 58.3635 28.1642C59.376 28.1642 60.1587 28.4701 60.7116 29.082C61.2644 29.6939 61.5409 30.5557 61.5409 31.6676ZM56.3416 31.6676C56.3416 32.5062 56.5109 33.1429 56.8494 33.5778C57.188 34.0095 57.6896 34.2253 58.3542 34.2253C59.0158 34.2253 59.5143 34.011 59.8497 33.5824C60.1882 33.1538 60.3575 32.5155 60.3575 31.6676C60.3575 30.8322 60.1898 30.1986 59.8544 29.7668C59.522 29.3351 59.0251 29.1193 58.3635 29.1193C57.6958 29.1193 57.1911 29.3351 56.8494 29.7668C56.5109 30.1986 56.3416 30.8322 56.3416 31.6676ZM68.3427 28.2714V32.6786C68.3427 33.1818 68.234 33.6228 68.0166 34.0017C67.8023 34.3775 67.4902 34.6679 67.0802 34.8729C66.6733 35.0748 66.1857 35.1757 65.6173 35.1757C64.7725 35.1757 64.1156 34.9521 63.6466 34.5049C63.1777 34.0576 62.9432 33.4427 62.9432 32.66V28.2714H64.0613V32.5808C64.0613 33.1429 64.1917 33.5576 64.4526 33.8247C64.7135 34.0918 65.1142 34.2253 65.6546 34.2253C66.7044 34.2253 67.2293 33.674 67.2293 32.5715V28.2714H68.3427ZM72.4379 35.0826H71.3244V29.2264H69.3211V28.2714H74.4412V29.2264H72.4379V35.0826ZM83.5072 31.6117C83.5072 32.7361 83.1951 33.5964 82.5708 34.1927C81.9465 34.786 81.0474 35.0826 79.8733 35.0826H77.9679V28.2714H80.0737C81.1576 28.2714 82.0009 28.5633 82.6034 29.1472C83.206 29.7311 83.5072 30.5526 83.5072 31.6117ZM82.3332 31.649C82.3332 30.0184 81.5707 29.2031 80.0457 29.2031H79.0813V34.1461H79.8733C81.5133 34.1461 82.3332 33.3138 82.3332 31.649ZM88.8276 35.0826H84.9748V28.2714H88.8276V29.2124H86.0882V31.0667H88.6552V31.9984H86.0882V34.1368H88.8276V35.0826ZM92.6572 35.0826H91.5437V29.2264H89.5404V28.2714H94.6605V29.2264H92.6572V35.0826ZM99.9343 35.0826L99.2541 33.1911H96.6498L95.9836 35.0826H94.8096L97.3579 28.2434H98.5692L101.118 35.0826H99.9343ZM98.9606 32.2314L98.3223 30.3771C98.2757 30.2529 98.2105 30.0572 98.1266 29.7901C98.0459 29.523 97.99 29.3274 97.9589 29.2031C97.8751 29.5851 97.7524 30.0029 97.5909 30.4563L96.9759 32.2314H98.9606ZM102.017 35.0826V28.2714H103.13V35.0826H102.017ZM104.933 35.0826V28.2714H106.047V34.1275H108.93V35.0826H104.933ZM114.032 33.233C114.032 33.8387 113.813 34.3139 113.375 34.6586C112.937 35.0034 112.333 35.1757 111.563 35.1757C110.792 35.1757 110.162 35.0562 109.671 34.817V33.7641C109.982 33.9101 110.311 34.025 110.659 34.1089C111.01 34.1927 111.336 34.2347 111.637 34.2347C112.078 34.2347 112.403 34.1508 112.611 33.9831C112.822 33.8154 112.928 33.5902 112.928 33.3076C112.928 33.0529 112.831 32.837 112.639 32.66C112.446 32.4829 112.049 32.2733 111.446 32.031C110.825 31.7795 110.387 31.4922 110.132 31.1691C109.878 30.8461 109.75 30.4579 109.75 30.0044C109.75 29.4361 109.952 28.9888 110.356 28.6627C110.76 28.3366 111.302 28.1735 111.982 28.1735C112.634 28.1735 113.283 28.3164 113.929 28.6021L113.575 29.5106C112.97 29.2559 112.429 29.1286 111.954 29.1286C111.594 29.1286 111.32 29.2078 111.134 29.3662C110.948 29.5215 110.855 29.728 110.855 29.9858C110.855 30.1628 110.892 30.315 110.966 30.4424C111.041 30.5666 111.164 30.6846 111.334 30.7964C111.505 30.9083 111.813 31.0558 112.257 31.239C112.757 31.4471 113.123 31.6412 113.356 31.8214C113.589 32.0015 113.76 32.205 113.869 32.4317C113.978 32.6584 114.032 32.9255 114.032 33.233Z" fill="#5F5F5F"/>
<path d="M52.6493 61.3456L50.3447 54.7091H50.3012C50.3628 55.6947 50.3936 56.6187 50.3936 57.4811V61.3456H49.2142V53.3992H51.0459L53.2526 59.7204H53.2852L55.5572 53.3992H57.3943V61.3456H56.1442V57.4158C56.1442 57.0209 56.1532 56.5063 56.1714 55.8722C56.1931 55.2381 56.2112 54.854 56.2257 54.7199H56.1822L53.7961 61.3456H52.6493ZM61.9763 61.4543C61.0414 61.4543 60.3094 61.1825 59.7804 60.639C59.255 60.0918 58.9923 59.3399 58.9923 58.3833C58.9923 57.4013 59.2369 56.6295 59.726 56.0679C60.2152 55.5062 60.8874 55.2254 61.7425 55.2254C62.5361 55.2254 63.163 55.4664 63.6232 55.9483C64.0833 56.4302 64.3134 57.0933 64.3134 57.9376V58.6279H60.3076C60.3257 59.2113 60.4834 59.6606 60.7805 59.9759C61.0776 60.2875 61.4961 60.4433 62.0361 60.4433C62.3912 60.4433 62.7209 60.4107 63.0253 60.3455C63.3333 60.2766 63.663 60.1643 64.0145 60.0085V61.0466C63.7029 61.1952 63.3876 61.3003 63.0688 61.3619C62.7499 61.4235 62.3857 61.4543 61.9763 61.4543ZM61.7425 56.1929C61.3367 56.1929 61.0106 56.3215 60.7642 56.5788C60.5214 56.8361 60.3765 57.2111 60.3294 57.7039H63.0579C63.0506 57.2075 62.9311 56.8325 62.6992 56.5788C62.4673 56.3215 62.1484 56.1929 61.7425 56.1929ZM68.3899 61.4543C67.455 61.4543 66.7231 61.1825 66.1941 60.639C65.6686 60.0918 65.4059 59.3399 65.4059 58.3833C65.4059 57.4013 65.6505 56.6295 66.1397 56.0679C66.6289 55.5062 67.301 55.2254 68.1562 55.2254C68.9498 55.2254 69.5766 55.4664 70.0368 55.9483C70.497 56.4302 70.7271 57.0933 70.7271 57.9376V58.6279H66.7213C66.7394 59.2113 66.897 59.6606 67.1942 59.9759C67.4913 60.2875 67.9098 60.4433 68.4497 60.4433C68.8048 60.4433 69.1346 60.4107 69.4389 60.3455C69.7469 60.2766 70.0767 60.1643 70.4282 60.0085V61.0466C70.1165 61.1952 69.8013 61.3003 69.4824 61.3619C69.1635 61.4235 68.7994 61.4543 68.3899 61.4543ZM68.1562 56.1929C67.7504 56.1929 67.4242 56.3215 67.1778 56.5788C66.9351 56.8361 66.7901 57.2111 66.743 57.7039H69.4715C69.4643 57.2075 69.3447 56.8325 69.1128 56.5788C68.8809 56.3215 68.562 56.1929 68.1562 56.1929ZM74.4177 60.4216C74.7293 60.4216 75.0409 60.3726 75.3525 60.2748V61.2369C75.2112 61.2985 75.0282 61.3492 74.8036 61.389C74.5825 61.4325 74.3524 61.4543 74.1133 61.4543C72.903 61.4543 72.2979 60.8165 72.2979 59.541V56.3016H71.4772V55.7363L72.3577 55.2689L72.7925 53.997H73.5806V55.3341H75.2928V56.3016H73.5806V59.5193C73.5806 59.8273 73.6567 60.0556 73.8089 60.2042C73.9647 60.3491 74.1676 60.4216 74.4177 60.4216ZM77.8365 61.3456H76.5592V55.3341H77.8365V61.3456ZM76.4831 53.7416C76.4831 53.5133 76.5447 53.3376 76.6679 53.2144C76.7947 53.0912 76.9741 53.0296 77.206 53.0296C77.4306 53.0296 77.6046 53.0912 77.7278 53.2144C77.8546 53.3376 77.918 53.5133 77.918 53.7416C77.918 53.959 77.8546 54.1311 77.7278 54.2579C77.6046 54.3811 77.4306 54.4427 77.206 54.4427C76.9741 54.4427 76.7947 54.3811 76.6679 54.2579C76.5447 54.1311 76.4831 53.959 76.4831 53.7416ZM84.9567 61.3456H83.674V57.6496C83.674 57.1857 83.5798 56.8397 83.3914 56.6114C83.2066 56.3831 82.9112 56.269 82.5054 56.269C81.9655 56.269 81.5705 56.4284 81.3205 56.7473C81.0705 57.0662 80.9455 57.6006 80.9455 58.3507V61.3456H79.6682V55.3341H80.6683L80.8476 56.1222H80.9129C81.094 55.836 81.3513 55.6149 81.6847 55.4591C82.018 55.3033 82.3876 55.2254 82.7935 55.2254C84.2356 55.2254 84.9567 55.9592 84.9567 57.4267V61.3456ZM91.8106 55.3341V56.0353L90.7834 56.2255C90.8776 56.3523 90.9555 56.5081 91.0171 56.6929C91.0787 56.8777 91.1095 57.0734 91.1095 57.28C91.1095 57.8996 90.8957 58.3869 90.4681 58.7421C90.0405 59.0972 89.4517 59.2747 88.7016 59.2747C88.5096 59.2747 88.3357 59.2602 88.1799 59.2312C87.9045 59.4015 87.7668 59.6008 87.7668 59.8291C87.7668 59.9668 87.8302 60.0701 87.957 60.1389C88.0875 60.2078 88.3248 60.2422 88.669 60.2422H89.718C90.3812 60.2422 90.8848 60.3835 91.2291 60.6662C91.5733 60.9488 91.7454 61.3564 91.7454 61.8891C91.7454 62.5703 91.4646 63.0957 90.9029 63.4653C90.3413 63.8349 89.5296 64.0197 88.4679 64.0197C87.649 64.0197 87.0239 63.8748 86.5927 63.5849C86.1615 63.295 85.9459 62.8819 85.9459 62.3457C85.9459 61.9761 86.0619 61.6644 86.2938 61.4108C86.5293 61.1608 86.8573 60.9868 87.2776 60.889C87.1073 60.8165 86.966 60.7006 86.8536 60.5411C86.7449 60.3781 86.6906 60.2078 86.6906 60.0302C86.6906 59.8056 86.754 59.6153 86.8808 59.4595C87.0076 59.3037 87.1961 59.1497 87.4461 58.9975C87.1345 58.8634 86.8808 58.646 86.6851 58.3453C86.4931 58.0409 86.3971 57.6858 86.3971 57.28C86.3971 56.6277 86.6018 56.1222 87.0113 55.7635C87.4243 55.4048 88.0114 55.2254 88.7723 55.2254C88.9426 55.2254 89.1202 55.2381 89.305 55.2635C89.4934 55.2852 89.6347 55.3088 89.7289 55.3341H91.8106ZM87.0874 62.2804C87.0874 62.5558 87.2106 62.7678 87.457 62.9164C87.707 63.0649 88.0567 63.1392 88.506 63.1392C89.2017 63.1392 89.7199 63.0396 90.0605 62.8403C90.4011 62.641 90.5714 62.3765 90.5714 62.0467C90.5714 61.7858 90.4772 61.5992 90.2888 61.4869C90.104 61.3782 89.7579 61.3238 89.2506 61.3238H88.2831C87.9171 61.3238 87.6255 61.409 87.408 61.5793C87.1943 61.7532 87.0874 61.9869 87.0874 62.2804ZM87.6363 57.28C87.6363 57.6568 87.7323 57.9467 87.9244 58.1496C88.1201 58.3525 88.3991 58.454 88.7614 58.454C89.5006 58.454 89.8702 58.059 89.8702 57.2691C89.8702 56.8777 89.7778 56.577 89.593 56.3668C89.4119 56.153 89.1347 56.0461 88.7614 56.0461C88.3918 56.0461 88.111 56.1512 87.919 56.3614C87.7305 56.5716 87.6363 56.8777 87.6363 57.28ZM97.2568 57.0952H98.1591C98.7642 57.0952 99.2026 56.9828 99.4744 56.7582C99.7462 56.5335 99.8821 56.2001 99.8821 55.7581C99.8821 55.3088 99.7353 54.9863 99.4418 54.7906C99.1483 54.5949 98.7062 54.4971 98.1156 54.4971H97.2568V57.0952ZM97.2568 58.1713V61.3456H95.9578V53.3992H98.2025C99.228 53.3992 99.9871 53.5912 100.48 53.9753C100.973 54.3594 101.219 54.9392 101.219 55.7146C101.219 56.7038 100.705 57.4086 99.6755 57.8289L101.92 61.3456H100.442L98.5395 58.1713H97.2568ZM108.274 58.329C108.274 59.311 108.022 60.0773 107.519 60.6281C107.015 61.1789 106.314 61.4543 105.415 61.4543C104.854 61.4543 104.357 61.3274 103.926 61.0738C103.495 60.8202 103.163 60.456 102.931 59.9813C102.699 59.5066 102.583 58.9558 102.583 58.329C102.583 57.3542 102.833 56.5933 103.333 56.0461C103.834 55.499 104.538 55.2254 105.448 55.2254C106.317 55.2254 107.006 55.5062 107.513 56.0679C108.021 56.6259 108.274 57.3796 108.274 58.329ZM103.899 58.329C103.899 59.7168 104.411 60.4107 105.437 60.4107C106.452 60.4107 106.959 59.7168 106.959 58.329C106.959 56.9557 106.448 56.269 105.426 56.269C104.89 56.269 104.5 56.4465 104.257 56.8017C104.018 57.1568 103.899 57.6659 103.899 58.329ZM115.079 58.329C115.079 59.311 114.827 60.0773 114.324 60.6281C113.82 61.1789 113.119 61.4543 112.22 61.4543C111.659 61.4543 111.162 61.3274 110.731 61.0738C110.3 60.8202 109.968 60.456 109.736 59.9813C109.504 59.5066 109.388 58.9558 109.388 58.329C109.388 57.3542 109.638 56.5933 110.138 56.0461C110.639 55.499 111.343 55.2254 112.253 55.2254C113.122 55.2254 113.811 55.5062 114.318 56.0679C114.826 56.6259 115.079 57.3796 115.079 58.329ZM110.704 58.329C110.704 59.7168 111.216 60.4107 112.242 60.4107C113.257 60.4107 113.764 59.7168 113.764 58.329C113.764 56.9557 113.253 56.269 112.231 56.269C111.695 56.269 111.305 56.4465 111.062 56.8017C110.823 57.1568 110.704 57.6659 110.704 58.329ZM121.618 61.3456H120.335V57.6387C120.335 57.1785 120.248 56.8361 120.074 56.6114C119.9 56.3831 119.629 56.269 119.259 56.269C118.766 56.269 118.404 56.4302 118.172 56.7527C117.944 57.0716 117.829 57.6043 117.829 58.3507V61.3456H116.552V55.3341H117.552L117.732 56.1222H117.797C117.963 55.836 118.204 55.6149 118.52 55.4591C118.839 55.3033 119.188 55.2254 119.569 55.2254C120.493 55.2254 121.105 55.5407 121.406 56.1712H121.493C121.67 55.874 121.92 55.6421 122.243 55.4754C122.565 55.3088 122.935 55.2254 123.352 55.2254C124.069 55.2254 124.591 55.4066 124.917 55.7689C125.247 56.1313 125.412 56.6839 125.412 57.4267V61.3456H124.134V57.6387C124.134 57.1785 124.046 56.8361 123.868 56.6114C123.694 56.3831 123.422 56.269 123.053 56.269C122.556 56.269 122.192 56.4248 121.96 56.7364C121.732 57.0444 121.618 57.5191 121.618 58.1605V61.3456Z" fill="#5F5F5F"/>
<path d="M55.6767 81.1495C55.6767 82.4612 55.3126 83.4649 54.5843 84.1606C53.8559 84.8527 52.8069 85.1988 51.4372 85.1988H49.2142V77.2524H51.6709C52.9355 77.2524 53.9193 77.593 54.6223 78.2742C55.3253 78.9554 55.6767 79.9139 55.6767 81.1495ZM54.3071 81.193C54.3071 79.2906 53.4175 78.3394 51.6383 78.3394H50.5132V84.1063H51.4372C53.3504 84.1063 54.3071 83.1352 54.3071 81.193ZM61.0142 85.1988L60.7588 84.3618H60.7153C60.4254 84.7277 60.1337 84.9778 59.8402 85.1118C59.5467 85.2423 59.1698 85.3075 58.7096 85.3075C58.119 85.3075 57.657 85.1481 57.3236 84.8292C56.9939 84.5103 56.829 84.0592 56.829 83.4758C56.829 82.8562 57.0591 82.3887 57.5193 82.0735C57.9795 81.7582 58.6807 81.5861 59.6228 81.5571L60.6609 81.5245V81.2038C60.6609 80.8197 60.5703 80.5335 60.3892 80.3451C60.2116 80.153 59.9344 80.057 59.5576 80.057C59.2496 80.057 58.9542 80.1023 58.6716 80.1929C58.389 80.2835 58.1172 80.3904 57.8563 80.5136L57.4432 79.6004C57.7693 79.4301 58.1263 79.3015 58.514 79.2145C58.9017 79.1239 59.2677 79.0786 59.6119 79.0786C60.3765 79.0786 60.9526 79.2453 61.3403 79.5787C61.7317 79.9121 61.9273 80.4357 61.9273 81.1495V85.1988H61.0142ZM59.1119 84.3291C59.5757 84.3291 59.9471 84.2005 60.2261 83.9432C60.5087 83.6823 60.65 83.3182 60.65 82.8507V82.329L59.8782 82.3616C59.2767 82.3833 58.8383 82.4848 58.5629 82.6659C58.2911 82.8435 58.1552 83.1171 58.1552 83.4867C58.1552 83.7548 58.235 83.9632 58.3944 84.1117C58.5538 84.2567 58.793 84.3291 59.1119 84.3291ZM65.9495 84.2748C66.2611 84.2748 66.5727 84.2259 66.8843 84.128V85.0901C66.743 85.1517 66.56 85.2024 66.3354 85.2423C66.1143 85.2858 65.8842 85.3075 65.6451 85.3075C64.4348 85.3075 63.8297 84.6698 63.8297 83.3943V80.1548H63.009V79.5896L63.8895 79.1221L64.3243 77.8503H65.1124V79.1873H66.8246V80.1548H65.1124V83.3725C65.1124 83.6805 65.1885 83.9088 65.3407 84.0574C65.4965 84.2023 65.6994 84.2748 65.9495 84.2748ZM70.7162 85.3075C69.7814 85.3075 69.0494 85.0357 68.5204 84.4922C67.995 83.945 67.7322 83.1932 67.7322 82.2366C67.7322 81.2546 67.9768 80.4828 68.466 79.9211C68.9552 79.3595 69.6274 79.0786 70.4825 79.0786C71.2761 79.0786 71.9029 79.3196 72.3631 79.8015C72.8233 80.2835 73.0534 80.9466 73.0534 81.7909V82.4811H69.0476C69.0657 83.0645 69.2233 83.5138 69.5205 83.8291C69.8176 84.1407 70.2361 84.2965 70.776 84.2965C71.1311 84.2965 71.4609 84.2639 71.7652 84.1987C72.0732 84.1298 72.403 84.0175 72.7545 83.8617V84.8998C72.4428 85.0484 72.1276 85.1535 71.8087 85.2151C71.4899 85.2767 71.1257 85.3075 70.7162 85.3075ZM70.4825 80.0461C70.0767 80.0461 69.7506 80.1748 69.5042 80.432C69.2614 80.6893 69.1164 81.0643 69.0693 81.5571H71.7979C71.7906 81.0607 71.671 80.6857 71.4391 80.432C71.2072 80.1748 70.8883 80.0461 70.4825 80.0461Z" fill="#5F5F5F"/>
<path d="M51.959 109.052H50.66V102.22H48.3228V101.106H54.2962V102.22H51.959V109.052ZM56.6605 109.052H55.3832V103.041H56.6605V109.052ZM55.3071 101.448C55.3071 101.22 55.3687 101.044 55.4919 100.921C55.6188 100.798 55.7981 100.736 56.03 100.736C56.2547 100.736 56.4286 100.798 56.5518 100.921C56.6787 101.044 56.7421 101.22 56.7421 101.448C56.7421 101.665 56.6787 101.838 56.5518 101.964C56.4286 102.088 56.2547 102.149 56.03 102.149C55.7981 102.149 55.6188 102.088 55.4919 101.964C55.3687 101.838 55.3071 101.665 55.3071 101.448ZM63.5579 109.052H62.2752V105.345C62.2752 104.885 62.1882 104.543 62.0143 104.318C61.8404 104.09 61.5686 103.975 61.199 103.975C60.7062 103.975 60.3439 104.137 60.112 104.459C59.8837 104.778 59.7695 105.311 59.7695 106.057V109.052H58.4922V103.041H59.4923L59.6717 103.829H59.7369C59.9036 103.542 60.1446 103.321 60.4598 103.166C60.7787 103.01 61.1284 102.932 61.5088 102.932C62.4328 102.932 63.0452 103.247 63.346 103.878H63.4329C63.6105 103.58 63.8605 103.349 64.183 103.182C64.5055 103.015 64.8751 102.932 65.2918 102.932C66.0093 102.932 66.531 103.113 66.8572 103.475C67.1869 103.838 67.3518 104.39 67.3518 105.133V109.052H66.0745V105.345C66.0745 104.885 65.9857 104.543 65.8082 104.318C65.6342 104.09 65.3625 103.975 64.9929 103.975C64.4964 103.975 64.1323 104.131 63.9004 104.443C63.6721 104.751 63.5579 105.226 63.5579 105.867V109.052ZM71.7598 109.161C70.8249 109.161 70.093 108.889 69.5639 108.345C69.0385 107.798 68.7758 107.046 68.7758 106.09C68.7758 105.108 69.0204 104.336 69.5096 103.774C69.9988 103.213 70.6709 102.932 71.5261 102.932C72.3196 102.932 72.9465 103.173 73.4067 103.655C73.8669 104.137 74.097 104.8 74.097 105.644V106.334H70.0912C70.1093 106.918 70.2669 107.367 70.564 107.682C70.8612 107.994 71.2797 108.15 71.8196 108.15C72.1747 108.15 72.5044 108.117 72.8088 108.052C73.1168 107.983 73.4466 107.871 73.798 107.715V108.753C73.4864 108.902 73.1712 109.007 72.8523 109.068C72.5334 109.13 72.1693 109.161 71.7598 109.161ZM71.5261 103.899C71.1203 103.899 70.7941 104.028 70.5477 104.285C70.305 104.543 70.16 104.918 70.1129 105.41H72.8414C72.8342 104.914 72.7146 104.539 72.4827 104.285C72.2508 104.028 71.9319 103.899 71.5261 103.899Z" fill="#5F5F5F"/>
<g clip-path="url(#clip1_22_413)">
<rect x="26.4985" y="51.5321" width="11.5291" height="11.5291" rx="1.78899" stroke="#353535" stroke-width="1.19266"/>
<path d="M29.9329 56.511C29.7186 56.2609 29.3421 56.232 29.0921 56.4463C28.842 56.6607 28.8131 57.0371 29.0274 57.2872L29.9329 56.511ZM35.5421 55.2421C35.7248 54.9681 35.6507 54.5978 35.3767 54.4151C35.1027 54.2325 34.7324 54.3065 34.5497 54.5805L35.5421 55.2421ZM31.1824 58.8851L30.7297 59.2731L31.1824 58.8851ZM29.0274 57.2872L30.7297 59.2731L31.6352 58.497L29.9329 56.511L29.0274 57.2872ZM32.9439 59.1394L35.5421 55.2421L34.5497 54.5805L31.9515 58.4779L32.9439 59.1394ZM30.7297 59.2731C31.3297 59.9732 32.4324 59.9066 32.9439 59.1394L31.9515 58.4779C31.8784 58.5875 31.7209 58.597 31.6352 58.497L30.7297 59.2731Z" fill="#353535"/>
</g>
<g clip-path="url(#clip2_22_413)">
<rect x="26.4985" y="76.9755" width="11.5291" height="9.93884" rx="1.78899" stroke="#353535" stroke-width="1.19266"/>
<path d="M29.5718 75.5841V76.7768" stroke="#353535" stroke-width="1.19266" stroke-linecap="round"/>
<path d="M34.9542 75.5841V76.7768" stroke="#353535" stroke-width="1.19266" stroke-linecap="round"/>
<path d="M26.4804 80.4774H38.0456" stroke="#353535" stroke-width="1.19266" stroke-linecap="round"/>
</g>
<g clip-path="url(#clip3_22_413)">
<circle cx="32.263" cy="105.003" r="5.76453" stroke="#353535" stroke-width="1.19266"/>
<path d="M32.263 101.425V105.003H35.4434" stroke="#353535" stroke-width="1.19266"/>
</g>
</g>
</g>
</g>
<defs>
<filter id="filter0_d_22_413" x="0" y="0" width="194" height="136" filterUnits="userSpaceOnUse" color-interpolation-filters="sRGB">
<feFlood flood-opacity="0" result="BackgroundImageFix"/>
<feColorMatrix in="SourceAlpha" type="matrix" values="0 0 0 0 0 0 0 0 0 0 0 0 0 0 0 0 0 0 127 0" result="hardAlpha"/>
<feOffset/>
<feGaussianBlur stdDeviation="4"/>
<feComposite in2="hardAlpha" operator="out"/>
<feColorMatrix type="matrix" values="0 0 0 0 0 0 0 0 0 0 0 0 0 0 0 0 0 0 0.15 0"/>
<feBlend mode="normal" in2="BackgroundImageFix" result="effect1_dropShadow_22_413"/>
<feBlend mode="normal" in="SourceGraphic" in2="effect1_dropShadow_22_413" result="shape"/>
</filter>
<filter id="filter1_d_22_413" x="0.0489302" y="0.0489302" width="275.902" height="139.939" filterUnits="userSpaceOnUse" color-interpolation-filters="sRGB">
<feFlood flood-opacity="0" result="BackgroundImageFix"/>
<feColorMatrix in="SourceAlpha" type="matrix" values="0 0 0 0 0 0 0 0 0 0 0 0 0 0 0 0 0 0 127 0" result="hardAlpha"/>
<feOffset/>
<feGaussianBlur stdDeviation="3.97553"/>
<feComposite in2="hardAlpha" operator="out"/>
<feColorMatrix type="matrix" values="0 0 0 0 0 0 0 0 0 0 0 0 0 0 0 0 0 0 0.1 0"/>
<feBlend mode="normal" in2="BackgroundImageFix" result="effect1_dropShadow_22_413"/>
<feBlend mode="normal" in="SourceGraphic" in2="effect1_dropShadow_22_413" result="shape"/>
</filter>
<clipPath id="clip0_22_413">
<rect x="8" y="8" width="178" height="120" rx="16" fill="white"/>
</clipPath>
<clipPath id="clip1_22_413">
<rect width="12.7217" height="12.7217" fill="white" transform="translate(25.9022 50.9358)"/>
</clipPath>
<clipPath id="clip2_22_413">
<rect width="12.7217" height="12.7217" fill="white" transform="translate(25.9022 74.789)"/>
</clipPath>
<clipPath id="clip3_22_413">
<rect width="12.7217" height="12.7217" fill="white" transform="translate(25.9022 98.6422)"/>
</clipPath>
</defs>
</svg>
