<svg width="270" height="62" viewBox="0 0 270 62" fill="none" xmlns="http://www.w3.org/2000/svg">
<g filter="url(#filter0_d_163_1072)">
<path d="M10 29C10 17.402 19.402 8 31 8H239C250.598 8 260 17.402 260 29C260 40.598 250.598 50 239 50H31C19.402 50 10 40.598 10 29Z" fill="white"/>
<path d="M108.466 21.95C109.45 21.95 110.206 22.268 110.734 22.904C111.262 23.528 111.526 24.446 111.526 25.658V31.292C111.526 32.492 111.262 33.41 110.734 34.046C110.206 34.682 109.45 35 108.466 35H105.496V21.95H108.466ZM109.618 25.73C109.618 24.974 109.522 24.458 109.33 24.182C109.15 23.894 108.862 23.75 108.466 23.75H107.422V33.236H108.466C108.85 33.236 109.138 33.098 109.33 32.822C109.522 32.546 109.618 32.024 109.618 31.256V25.73ZM115.669 21.77C116.689 21.77 117.445 22.082 117.937 22.706C118.429 23.33 118.675 24.242 118.675 25.442V31.508C118.675 32.708 118.429 33.62 117.937 34.244C117.445 34.868 116.689 35.18 115.669 35.18C114.649 35.18 113.887 34.868 113.383 34.244C112.891 33.62 112.645 32.708 112.645 31.508V25.442C112.645 24.242 112.891 23.33 113.383 22.706C113.887 22.082 114.649 21.77 115.669 21.77ZM116.767 25.442C116.767 24.722 116.677 24.23 116.497 23.966C116.329 23.69 116.053 23.552 115.669 23.552C115.285 23.552 115.003 23.69 114.823 23.966C114.655 24.23 114.571 24.722 114.571 25.442V31.508C114.571 32.24 114.655 32.744 114.823 33.02C115.003 33.296 115.285 33.434 115.669 33.434C116.053 33.434 116.329 33.296 116.497 33.02C116.677 32.744 116.767 32.24 116.767 31.508V25.442ZM128.205 35H126.027L124.803 26.126H124.767L123.525 35H121.347L119.403 21.95H121.329L122.517 31.94H122.553L123.885 21.95H125.703L126.999 31.94H127.035L128.259 21.95H130.149L128.205 35ZM132.493 21.95L135.283 29.402H135.319V21.95H136.993V35H135.733L132.799 27.224H132.763V35H131.089V21.95H132.493ZM140.433 21.95V33.146H143.295V35H138.543V21.95H140.433ZM147.099 21.77C148.119 21.77 148.875 22.082 149.367 22.706C149.859 23.33 150.105 24.242 150.105 25.442V31.508C150.105 32.708 149.859 33.62 149.367 34.244C148.875 34.868 148.119 35.18 147.099 35.18C146.079 35.18 145.317 34.868 144.813 34.244C144.321 33.62 144.075 32.708 144.075 31.508V25.442C144.075 24.242 144.321 23.33 144.813 22.706C145.317 22.082 146.079 21.77 147.099 21.77ZM148.197 25.442C148.197 24.722 148.107 24.23 147.927 23.966C147.759 23.69 147.483 23.552 147.099 23.552C146.715 23.552 146.433 23.69 146.253 23.966C146.085 24.23 146.001 24.722 146.001 25.442V31.508C146.001 32.24 146.085 32.744 146.253 33.02C146.433 33.296 146.715 33.434 147.099 33.434C147.483 33.434 147.759 33.296 147.927 33.02C148.107 32.744 148.197 32.24 148.197 31.508V25.442ZM152.705 35H150.797L153.119 21.95H155.441L157.781 35H155.819L155.369 31.922H153.137L152.705 35ZM153.371 30.374H155.153L154.289 24.056H154.253L153.371 30.374ZM161.657 21.95C162.641 21.95 163.397 22.268 163.925 22.904C164.453 23.528 164.717 24.446 164.717 25.658V31.292C164.717 32.492 164.453 33.41 163.925 34.046C163.397 34.682 162.641 35 161.657 35H158.687V21.95H161.657ZM162.809 25.73C162.809 24.974 162.713 24.458 162.521 24.182C162.341 23.894 162.053 23.75 161.657 23.75H160.613V33.236H161.657C162.041 33.236 162.329 33.098 162.521 32.822C162.713 32.546 162.809 32.024 162.809 31.256V25.73Z" fill="#353535"/>
</g>
<defs>
<filter id="filter0_d_163_1072" x="0" y="0" width="270" height="62" filterUnits="userSpaceOnUse" color-interpolation-filters="sRGB">
<feFlood flood-opacity="0" result="BackgroundImageFix"/>
<feColorMatrix in="SourceAlpha" type="matrix" values="0 0 0 0 0 0 0 0 0 0 0 0 0 0 0 0 0 0 127 0" result="hardAlpha"/>
<feOffset dy="2"/>
<feGaussianBlur stdDeviation="5"/>
<feComposite in2="hardAlpha" operator="out"/>
<feColorMatrix type="matrix" values="0 0 0 0 0.407344 0 0 0 0 0.9875 0 0 0 0 0.9875 0 0 0 0.25 0"/>
<feBlend mode="normal" in2="BackgroundImageFix" result="effect1_dropShadow_163_1072"/>
<feBlend mode="normal" in="SourceGraphic" in2="effect1_dropShadow_163_1072" result="shape"/>
</filter>
</defs>
</svg>
